# xmcd
# 
# Track frame offsets:
#     150
#     15710
#     35310
#     54777
#     75555
#     94687
#     110343
#     127437
#     155270
#     172752
#     185603
# 
# Disc length: 2977
# 
# Revision: 0
# Processed by: cddbd v1.5.2PL0 Copyright (c) Steve Scherf et al.
# Submitted via: fre:ac v1.0.17
# 
DISCID=7d0b9f0b
DTITLE=Jarabe de palo - Un metro cuadrado
DYEAR=2004
DGENRE=Pop
TTITLE0=1 m² (solo o bien acompañado)
TTITLE1=Romeo y Julieta (no eran de este planeta)
TTITLE2=Dicen
TTITLE3=Mi diario personal
TTITLE4=Que bueno que bueno
TTITLE5=El café de la morena
TTITLE6=Menos que un amor, más que un amigo
TTITLE7=Escriban más canciones
TTITLE8=Entre las barcas
TTITLE9=Sale a escena
TTITLE10=Cry (if you don't mind)
EXTD=
EXTT0=
EXTT1=
EXTT2=
EXTT3=
EXTT4=
EXTT5=
EXTT6=
EXTT7=
EXTT8=
EXTT9=
EXTT10=
PLAYORDER=
